PathFileType	4	(X/Y/Z)	OpenSim_Sub11_CSPreOp_Accel.trc
DataRate	CameraRate	NumFrames	NumMarkers	Units	OrigDataRate	OrigDataStartFrame	OrigNumFrames
100	100	38	8	m	100	2314	3701
Frame#	Time	torso_imu_offset_imu	pelvis_imu_offset_imu	tibia_r_imu_offset_imu	femur_r_imu_offset_imu	tibia_l_imu_offset_imu	femur_l_imu_offset_imu	toes_r_imu_offset_imu	toes_l_imu_offset_imu
				X1	Y1	Z1	X2	Y2	Z2	X3	Y3	Z3	X4	Y4	Z4	X5	Y5	Z5	X6	Y6	Z6	X7	Y7	Z7	X8		Y8	Z8	

2314	23.13000000	9.05703100	1.32821400	3.93922900	9.08368700	0.45475100	4.62056200	10.91270200	-1.04683700	3.10033100	10.48043800	1.40524700	-2.20408600	10.26083100	-2.07294800	0.49937900	9.70715100	1.76258500	-1.62394100	4.38243100	-0.69257100	9.24479000	5.90560800	0.33531400	8.03867300
2315	23.14000000	9.06050700	1.28353900	3.98586700	9.12136400	0.29226700	4.53507800	11.13272200	-1.03713100	3.40590100	10.31609200	0.95458600	-1.99211800	10.25368300	-2.10681200	0.37019600	9.60058400	1.42267000	-1.78958700	5.06981300	-0.33274500	8.84797100	6.22741100	-0.05570100	7.93050000
2316	23.15000000	9.03894400	1.15508200	3.96685300	9.15250700	0.08685900	4.48557800	11.07545000	-0.85131800	3.26601400	10.09875900	0.74860200	-1.67173900	10.21077300	-1.62896400	0.38840900	9.56312900	1.44133700	-1.75505600	4.70075500	0.15366600	9.81037700	6.22057400	0.22312900	7.90571400
2317	23.16000000	8.96404900	0.98415400	3.97373100	9.14334300	-0.05315500	4.37193600	10.95092800	-0.62569300	3.31970800	9.89212400	0.27657000	-1.50801400	10.02365200	-1.02949000	0.48777200	9.72054100	1.13696700	-1.77935000	4.33865500	-0.53054300	9.30323800	6.06346400	0.02424700	7.91850100
2318	23.17000000	8.84392200	0.81117300	3.92680900	9.05009400	-0.13382600	4.32802000	10.80613700	-0.58569000	3.40234300	9.63467800	-0.12469500	-1.24199200	9.84367600	-0.45534100	0.60318700	9.82869800	0.88598600	-1.91122000	4.92077400	-0.10213900	9.37757300	5.99284300	0.41329600	8.00202200
2319	23.18000000	8.74881200	0.70135500	3.89709100	8.90571600	-0.19902100	4.20968300	10.43387600	-0.63032700	4.15093400	9.47826800	-0.47904600	-1.12725500	9.75335300	-0.00635700	0.70879200	9.87350900	0.68174400	-1.89066900	5.00475200	-0.94080700	9.27368300	5.37409900	0.27615500	8.11652500
2320	23.19000000	8.70275600	0.71539400	3.90466300	8.69973000	-0.07516200	4.07830500	9.96576700	-0.27425500	5.72846900	9.68877600	-0.78489000	-0.85580600	9.76963300	0.36634900	0.74433100	9.61910400	0.92889400	-1.81045500	5.39121600	-2.94716800	7.80104500	6.07779300	0.31801900	7.82378400
2321	23.20000000	8.64214400	0.67399900	3.86016400	8.52914700	-0.05376800	4.06925900	9.31796400	0.41348500	4.79272800	9.83101700	-1.00907700	-0.65082900	9.80329700	0.50459300	0.79075100	9.46012300	1.09806000	-1.65236800	5.59984600	0.07644000	9.21144200	5.74627600	0.11195100	7.64511700
2322	23.21000000	8.60339800	0.62226600	3.82000500	8.35920000	-0.13983100	4.03478700	8.71118100	1.33136300	3.11717800	9.77069300	-1.44964500	-0.40093300	9.72835200	0.18434000	0.73082200	9.43822600	1.28868800	-1.54264200	5.74254300	0.02966200	9.07003100	5.72663600	0.24277400	7.99944600
2323	23.22000000	8.48619900	0.61618200	3.73063800	8.18897500	-0.22421600	3.99965700	8.77721500	2.54069000	2.93877400	9.70873200	-1.22397900	-0.14421700	9.72492500	-0.04883800	0.72090500	9.55682400	2.20149600	-1.40014100	6.16350400	-0.25144200	9.67224200	5.21412000	0.38248800	8.14875000
2324	23.23000000	8.40677500	0.55905500	3.75227700	8.07521300	-0.26943800	3.95098100	9.51824500	3.52652000	3.07635200	9.63526700	-1.50238200	-0.21929500	9.71348000	0.14089200	0.80672500	9.60295400	2.83236400	-1.22391600	6.24039600	-2.59947900	9.02400300	5.79141900	0.21305800	7.85913500
2325	23.24000000	8.40153700	0.63242400	3.69513600	8.05177100	-0.34131200	3.85048300	10.35408600	4.40142800	3.06511800	9.96485300	-0.93907700	-0.30991100	9.64204300	0.44899500	0.87643600	9.41402100	3.30125800	-1.00036700	7.01549200	-2.07835300	8.75605700	5.54984600	0.22238000	7.91327800
2326	23.25000000	8.41219800	0.71128400	3.71712800	8.11091200	-0.39969800	3.86637000	10.54748600	5.41661100	2.61513900	10.33406800	-0.54404400	-0.60706600	9.56537700	0.93964800	0.67045400	9.13075300	3.75401400	-0.72713900	7.89269000	-1.34566900	8.00584600	5.72808300	0.11268100	7.91833100
2327	23.26000000	8.49488800	0.85008100	3.64351200	8.30986400	-0.36723900	3.82839400	9.74241600	5.96479400	2.57215200	10.50551100	-0.18327400	-0.98813400	9.70433300	1.42634600	0.61853800	8.99650900	3.69410500	-0.66832300	7.63474500	-3.38288400	7.61987000	5.77890100	0.26254700	7.84009500
2328	23.27000000	8.62823100	1.01554000	3.66174300	8.57534000	-0.23326700	3.71800500	8.45042500	6.05219800	2.46322200	10.79152600	0.87491400	-1.12426400	9.67844000	1.68970100	0.57934200	8.84685900	3.99679600	-0.66395700	6.85582000	-3.26233400	8.23735400	5.72766000	0.17590900	7.82399700
2329	23.28000000	8.74449800	1.10620000	3.74785900	8.89140700	-0.22351000	3.65546600	7.39036300	6.65584400	1.90769000	11.15739300	0.95897800	-1.09542400	9.70358300	1.68359600	0.59204900	8.79196000	3.72337200	-0.77920400	4.50586400	-1.07616400	13.18670400	5.55272200	0.42344100	8.04966300
2330	23.29000000	8.90040200	1.02427600	3.78304600	9.12642000	-0.25824600	3.65960000	6.86375600	8.00553000	1.40142500	11.31788900	1.26647000	-1.15874700	9.71775400	1.50193500	0.45426200	8.84976900	3.48543200	-1.04817500	3.10115700	-2.52578000	13.66971700	5.30051200	0.46050100	8.16116200
2331	23.30000000	9.16697500	0.94538800	3.97386600	9.35871700	-0.32651200	3.74419500	7.01841200	9.37576800	1.28602800	11.40021800	1.77369600	-1.35778500	9.82353200	1.22485400	0.46698900	9.05616800	3.06489700	-1.39572900	1.03703000	-1.93311200	13.28709700	5.86885700	0.30850000	7.78891900
2332	23.31000000	9.36844800	0.80961000	3.89612200	9.46619300	-0.38508900	3.76084600	7.49234200	9.50054400	1.74743600	11.45756500	2.94048300	-1.34495500	10.00433600	0.89153900	0.38590200	9.32664000	2.76577600	-1.65398100	0.97036000	-1.72159600	13.56502200	5.76180900	-0.03898600	7.84986000
2333	23.32000000	9.47402500	0.58735100	4.01192000	9.58175600	-0.40375100	3.74267500	7.54191300	8.43060900	1.95425600	11.16289700	4.01646900	-1.19333200	10.15715600	0.43552300	0.14016100	9.54973300	2.74387100	-1.79504400	-1.21037100	-3.63637600	11.46016900	5.66627900	0.14633800	8.04194000
2334	23.33000000	9.56776100	0.39390300	4.11394500	9.56790600	-0.33973200	3.76774000	7.36716700	6.92596100	1.58557200	10.74811800	4.63184000	-1.25638200	10.16568800	0.03505700	0.16599100	9.63892100	2.49938400	-1.90137800	-0.79101600	-3.55942600	11.06595600	5.31896600	0.27034700	8.26344000
2335	23.34000000	9.47957300	0.24357800	4.12457600	9.54903400	-0.29066000	3.71991200	7.04421800	5.63749400	1.61504400	10.03187600	5.10755400	-1.32759300	10.07500000	0.03463100	0.26278000	9.66723700	2.60797100	-1.94283300	-0.11850700	-2.91892900	11.09083100	5.85101200	0.18516100	7.96672400
2336	23.35000000	9.33052100	0.10777500	4.04761700	9.47024600	-0.29939000	3.71088200	6.77707700	4.67898000	1.88246600	9.59303400	5.66332000	-1.26121800	9.97854600	0.18768900	0.20263400	9.47480900	2.68784400	-1.74827300	0.07924400	-2.65923600	10.74569400	5.59880100	0.21934500	8.01530700
2337	23.36000000	9.25605600	0.16666600	4.05519200	9.31472300	-0.30543100	3.63192500	6.56801600	4.07874700	1.87489100	8.86361000	4.04379900	-1.51569500	9.96198400	0.17526700	0.06707200	9.18565100	2.38694300	-2.16108900	0.39606200	-2.37798400	10.44959100	5.89221400	0.18641000	7.94685300
2338	23.37000000	9.31034200	0.26333200	4.03155300	9.15507900	-0.34638300	3.63284000	6.50125600	3.89011900	1.62596800	8.41589900	2.88924700	-1.80261100	9.93928300	0.13428500	0.10300100	9.29066400	1.53961300	-2.17849600	0.95112100	-1.87611300	10.13794100	5.88016600	0.17168100	7.76501800
2339	23.38000000	9.42275800	0.32019500	4.05030000	9.04751900	-0.36207500	3.55137600	6.53741900	3.94027500	1.62864300	8.22652400	2.08138600	-1.83739500	9.83999300	0.06625300	0.23485700	9.50077300	1.66026400	-2.21260100	1.44685300	-1.83187800	10.01264600	5.89630700	0.06317600	7.85051300
2340	23.39000000	9.31733500	0.37527500	4.09153700	9.01587500	-0.49215700	3.48261500	6.69791900	4.17802600	1.95542100	8.14587100	1.15596600	-1.65559000	9.91056200	0.06330500	0.23395200	9.59952700	1.60233000	-2.22730800	2.14061100	-1.38359800	10.06848700	5.65859600	0.31075800	8.03967500
2341	23.40000000	9.25545200	0.31648300	4.02304100	8.95696300	-0.64886700	3.51849100	6.89423700	4.43085400	2.00996400	8.20736200	0.56067200	-1.48464400	9.86305000	0.20365100	0.25271300	9.59913200	1.98369700	-2.18928700	2.80514500	-1.03208300	10.13076200	5.46771400	0.30242300	8.10688700
2342	23.41000000	9.19942800	0.38675500	3.91938200	8.96584100	-0.82765600	3.50305300	7.05576600	4.82938300	1.99591000	8.33222700	0.17236900	-1.29434500	9.88690500	0.35079500	0.32465400	9.48574800	2.15982900	-2.20042900	3.27809900	-0.95890700	10.04470000	5.84896900	0.29225900	7.83478800
2343	23.42000000	9.17617600	0.44109700	3.93140400	8.91425900	-0.93915800	3.50635700	7.59410900	5.29081600	2.00740800	8.55252700	-0.17718000	-1.00644600	9.80068500	0.27364700	0.33075400	9.39086200	2.42382400	-2.04455300	3.54701800	-1.20410300	9.77386800	6.03066900	0.00986000	7.70730100
2344	23.43000000	9.06646800	0.52123700	3.85897500	8.91367700	-1.03965700	3.47971600	8.42554700	5.61850900	1.80881300	8.78783000	-0.50398900	-0.71413200	9.87135600	-0.09905700	0.32506900	9.31309300	2.57636000	-1.90272800	4.52806300	-0.96228000	10.14006000	5.77582700	0.18713000	7.95532000
2345	23.44000000	8.97812000	0.55488500	3.89073000	8.85993000	-1.04568000	3.49182300	9.18229300	5.52501300	1.51032400	8.88698900	-0.55121400	-0.38654400	9.85378500	-0.35871100	0.38086100	9.26351000	2.84191000	-1.79992100	5.84047000	-0.61159000	10.43700700	5.52642000	0.34855400	8.17475100
2346	23.45000000	8.93856100	0.62709700	3.87275600	8.84266300	-1.11125000	3.48469200	9.53626800	4.97805800	1.34475000	8.90232100	-0.64565100	-0.20347700	9.78772900	-0.16549100	0.47151300	9.23216800	2.97305000	-1.76060900	6.67371900	-0.68041600	10.13352000	5.78547800	0.18995800	7.94823700
2347	23.46000000	8.94017400	0.72915500	3.83753500	8.85044600	-1.07102000	3.53498100	9.45167100	4.14593900	1.55620700	8.77192900	-0.69798300	-0.21825300	9.78250600	0.01739900	0.48209100	9.28915000	2.87041100	-1.79657200	6.76189700	-0.92779200	9.22323700	5.70257400	0.25878400	7.94722700
2348	23.47000000	8.95674100	0.75194100	3.83985900	8.76514500	-0.98021600	3.43522600	9.14232000	3.38039700	1.87778500	8.60805200	-0.63493100	-0.37614600	9.78007700	0.13142400	0.37040800	9.36431800	2.65118300	-1.75179900	6.90098800	-0.83321800	8.60334700	5.77484700	0.15758800	7.89576000
2349	23.48000000	8.93889500	0.73185800	3.73088100	8.73153600	-0.89133100	3.38080400	9.00748900	2.58337900	1.72545900	8.58290800	-1.07238900	-0.51711300	9.79323500	0.03271700	0.45102600	9.35677900	2.49418400	-1.71762600	7.81144600	-0.89483300	8.53837100	5.89306600	0.21993500	7.79373000
2350	23.49000000	8.92531900	0.73335200	3.66652000	8.67378100	-0.79793000	3.30134700	9.09987900	1.89130400	1.82846900	8.74011400	-1.64471300	-0.66272300	9.68642400	-0.00821900	0.57502000	9.43788800	2.36585500	-1.63383100	8.80934600	-0.95589600	8.41888500	5.91880700	-0.02903700	7.73988100
2351	23.50000000	8.92424500	0.64578200	3.61698900	8.73526700	-0.74267400	3.29266500	9.45298800	1.38259800	2.00511100	9.09429100	-2.28513600	-0.68102000	9.78202300	-0.14430600	0.67101600	9.48984600	2.16387600	-1.61327100	8.99101300	-0.79826800	7.78890700	5.82280800	0.15587500	7.87064600
